<svg width="215" height="79" viewBox="0 0 215 79" fill="none" xmlns="http://www.w3.org/2000/svg">
<g clip-path="url(#clip0_395_5452)">
<path d="M27.3069 21.6091C27.3069 24.2899 26.8083 26.6938 25.8112 28.8121C24.8141 30.9348 23.4146 32.6223 21.6085 33.8792C19.8023 35.1361 17.6812 35.7646 15.2497 35.7646C13.6972 35.7646 12.2627 35.4394 10.942 34.7977C10.2904 34.4813 9.67373 34.0902 9.08771 33.6287C8.4011 33.0882 7.39525 33.6156 7.39525 34.4901V44.0091C7.39525 44.598 6.91856 45.0771 6.33253 45.0771H0.778447C0.349864 45.0771 0 44.7255 0 44.2948V9.08846C0 8.49956 0.476689 8.02053 1.06271 8.02053H5.77275C6.35877 8.02053 6.83546 8.49956 6.83546 9.08846C6.83546 9.9762 7.87193 10.5036 8.5498 9.93225C9.1708 9.40927 9.83992 8.9654 10.5571 8.60064C11.9916 7.87111 13.5528 7.50635 15.2453 7.50635C17.6769 7.50635 19.7979 8.12601 21.6041 9.36533C23.4103 10.6046 24.8141 12.2922 25.8068 14.4325C26.8039 16.5727 27.3025 18.9635 27.3025 21.6091H27.3069ZM19.6055 21.6091C19.6055 19.1656 18.9976 17.3154 17.7818 16.0585C16.566 14.8016 15.1491 14.1732 13.5266 14.1732C12.4814 14.1732 11.4843 14.4544 10.5396 15.0126C9.59501 15.5707 8.84281 16.4057 8.2874 17.5088C7.73199 18.6119 7.4521 19.9962 7.4521 21.6574C7.4521 23.3187 7.74074 24.6547 8.31364 25.7577C8.88654 26.8608 9.63 27.6914 10.544 28.254C11.4537 28.8121 12.4508 29.0934 13.531 29.0934C15.1535 29.0934 16.5704 28.4649 17.7862 27.208C19.002 25.9511 19.6099 24.0877 19.6099 21.6091H19.6055Z" fill="#1F1E1E"/>
<path d="M36.018 22.756V35.0085C36.018 35.4392 35.6682 35.7908 35.2396 35.7908H29.3969C28.9683 35.7908 28.6184 35.4392 28.6184 35.0085V9.33439C28.6184 8.9037 28.9683 8.55212 29.3969 8.55212H34.6798C35.1084 8.55212 35.4582 8.9037 35.4582 9.33439V11.3736C35.4582 12.0723 36.311 12.4459 36.7921 11.9449C37.6449 11.0615 38.677 10.3188 39.8884 9.72552C41.5896 8.89491 43.3739 8.42468 45.2413 8.3236C45.6786 8.29723 46.046 8.66639 46.046 9.10586V15.2014C46.046 15.654 45.6611 16.0012 45.2151 15.9792C43.562 15.8914 42.0925 15.9705 40.8024 16.2166C39.298 16.5066 38.126 17.157 37.2819 18.1766C36.4379 19.1962 36.0137 20.7212 36.0137 22.7603L36.018 22.756Z" fill="#1F1E1E"/>
<path d="M58.4621 35.7646C56.4679 35.7646 54.6355 35.4086 52.9649 34.6967C51.2943 33.9847 49.8336 32.9739 48.5829 31.6687C47.3321 30.3634 46.3612 28.8604 45.6702 27.1641C44.9793 25.4677 44.6294 23.6175 44.6294 21.6135C44.6294 19.6095 44.9749 17.8032 45.6702 16.0893C46.3612 14.3753 47.3321 12.8723 48.5829 11.5847C49.8336 10.297 51.2943 9.29501 52.9649 8.58306C54.6355 7.87111 56.4679 7.51514 58.4621 7.51514C60.4564 7.51514 62.2888 7.87111 63.9594 8.58306C65.63 9.29501 67.0906 10.297 68.3414 11.5847C69.5922 12.8767 70.5718 14.3753 71.2803 16.0893C71.9887 17.8032 72.343 19.6446 72.343 21.6135C72.343 23.5823 71.9887 25.4677 71.2803 27.1641C70.5718 28.8604 69.5922 30.3634 68.3414 31.6687C67.0906 32.9739 65.63 33.9847 63.9594 34.6967C62.2888 35.4086 60.4564 35.7646 58.4621 35.7646ZM58.4621 29.0934C59.5773 29.0934 60.5963 28.8121 61.5278 28.254C62.455 27.6958 63.2072 26.852 63.7801 25.7358C64.353 24.6151 64.6416 23.2395 64.6416 21.6135C64.6416 19.9874 64.353 18.6602 63.7801 17.5396C63.2072 16.4189 62.455 15.5795 61.5278 15.0214C60.6007 14.4632 59.5773 14.182 58.4621 14.182C57.3469 14.182 56.3673 14.4632 55.4227 15.0214C54.4781 15.5795 53.7259 16.4233 53.1704 17.5396C52.615 18.6602 52.3351 20.0182 52.3351 21.6135C52.3351 23.2088 52.615 24.6151 53.1704 25.7358C53.7259 26.8564 54.4781 27.6958 55.4227 28.254C56.3673 28.8121 57.3819 29.0934 58.4621 29.0934Z" fill="#1F1E1E"/>
<path d="M116.115 35.791C114.121 35.791 112.289 35.435 110.618 34.723C108.947 34.0111 107.487 33.0003 106.236 31.695C104.985 30.3898 104.014 28.8868 103.323 27.1904C102.632 25.4941 102.282 23.6439 102.282 21.6399C102.282 19.6359 102.628 17.8296 103.323 16.1157C104.014 14.4017 104.985 12.8987 106.236 11.611C107.487 10.3234 108.947 9.32138 110.618 8.60943C112.289 7.89748 114.121 7.5415 116.115 7.5415C118.109 7.5415 119.942 7.89748 121.612 8.60943C123.283 9.32138 124.744 10.3234 125.994 11.611C127.245 12.9031 128.225 14.4017 128.933 16.1157C129.642 17.8296 129.996 19.671 129.996 21.6399C129.996 23.6087 129.642 25.4941 128.933 27.1904C128.225 28.8868 127.245 30.3898 125.994 31.695C124.744 33.0003 123.283 34.0111 121.612 34.723C119.942 35.435 118.109 35.791 116.115 35.791ZM116.115 29.1197C117.23 29.1197 118.249 28.8385 119.181 28.2803C120.108 27.7222 120.86 26.8784 121.433 25.7621C122.006 24.6415 122.295 23.2659 122.295 21.6399C122.295 20.0138 122.006 18.6866 121.433 17.5659C120.86 16.4453 120.108 15.6059 119.181 15.0477C118.254 14.4896 117.23 14.2083 116.115 14.2083C115 14.2083 114.02 14.4896 113.076 15.0477C112.131 15.6059 111.379 16.4497 110.824 17.5659C110.268 18.6866 109.988 20.0446 109.988 21.6399C109.988 23.2352 110.268 24.6415 110.824 25.7621C111.379 26.8828 112.131 27.7222 113.076 28.2803C114.02 28.8385 115.035 29.1197 116.115 29.1197Z" fill="#1F1E1E"/>
<path d="M156.096 26.4213C156.096 29.3043 155.051 31.5896 152.956 33.2684C150.861 34.9472 147.857 35.7866 143.938 35.7866C140.02 35.7866 137.024 34.9032 134.846 33.1409C132.891 31.5544 131.715 29.4493 131.326 26.8257C131.256 26.3466 131.614 25.9116 132.095 25.9116H137.614C137.991 25.9116 138.314 26.184 138.375 26.5576C138.542 27.6123 139.062 28.4649 139.941 29.1197C140.986 29.902 142.355 30.2887 144.043 30.2887C145.325 30.2887 146.405 30.0866 147.284 29.6779C148.163 29.2691 148.6 28.6099 148.6 27.6914C148.6 26.9092 148.32 26.3159 147.765 25.9116C147.209 25.5028 146.322 25.1996 145.106 24.9974L140.142 24.0789C137.746 23.6043 135.843 22.7034 134.444 21.3806C133.04 20.0577 132.34 18.3262 132.34 16.186C132.34 14.4896 132.795 12.9866 133.709 11.6814C134.623 10.3761 135.913 9.35654 137.584 8.62701C139.254 7.89748 141.222 7.53271 143.488 7.53271C145.753 7.53271 147.852 7.91506 149.593 8.67974C151.333 9.44443 152.733 10.5475 153.796 11.989C154.697 13.2063 155.261 14.6258 155.497 16.2475C155.567 16.7265 155.204 17.1572 154.727 17.1572H149.173C148.814 17.1572 148.486 16.9111 148.421 16.5551C148.224 15.5487 147.747 14.7401 146.982 14.1292C146.072 13.3997 144.922 13.0349 143.536 13.0349C142.32 13.0349 141.34 13.2459 140.597 13.6722C139.854 14.0985 139.482 14.7137 139.482 15.5312C139.482 16.2783 139.753 16.8276 140.291 17.1836C140.829 17.5396 141.66 17.8208 142.775 18.023L148.093 19.0426C150.761 19.5172 152.764 20.3742 154.097 21.6135C155.431 22.8528 156.1 24.4569 156.1 26.4257L156.096 26.4213Z" fill="#1F1E1E"/>
<path d="M174.46 29.1943V33.9978C174.46 34.2878 174.302 34.5603 174.049 34.6965C173.305 35.0833 172.558 35.3557 171.801 35.514C170.904 35.6985 169.916 35.7952 168.836 35.7952C166.942 35.7952 165.307 35.4305 163.92 34.7009C162.534 33.9714 161.462 32.9035 160.702 31.4928C159.941 30.0864 159.56 28.3637 159.56 26.3245V15.2937C159.56 14.863 159.21 14.5115 158.782 14.5115H155.016C154.588 14.5115 154.238 14.1599 154.238 13.7292V8.82465C154.238 8.39397 154.588 8.04239 155.016 8.04239H158.782C159.21 8.04239 159.56 7.69081 159.56 7.26012V0.782265C159.56 0.35158 159.91 0 160.339 0H166.229C166.658 0 167.008 0.35158 167.008 0.782265V7.26452C167.008 7.6952 167.358 8.04678 167.786 8.04678H173.883C174.311 8.04678 174.661 8.39836 174.661 8.82905V13.7336C174.661 14.1643 174.311 14.5159 173.883 14.5159H167.786C167.358 14.5159 167.008 14.8674 167.008 15.2981V24.5974C167.008 26.0916 167.336 27.1771 167.996 27.8539C168.657 28.5351 169.61 28.8735 170.856 28.8735C171.53 28.8735 172.181 28.7988 172.807 28.645C173.021 28.5922 173.227 28.5307 173.423 28.4648C173.931 28.2934 174.451 28.6625 174.451 29.1987L174.46 29.1943Z" fill="#1F1E1E"/>
<path d="M192.797 34.9999V34.6175C192.797 33.9495 192.005 33.5672 191.511 34.0111C190.89 34.5692 190.204 35.0262 189.451 35.3734C188.135 35.9843 186.548 36.2919 184.689 36.2919C181.886 36.2919 179.625 35.5185 177.902 33.9759C176.178 32.4333 175.317 30.3854 175.317 27.8408C175.317 25.2963 176.362 23.1648 178.457 21.7585C180.552 20.3522 183.556 19.6446 187.475 19.6446C188.218 19.6446 188.944 19.671 189.653 19.7193C190.081 19.7501 190.518 19.7896 190.96 19.838C191.424 19.8907 191.835 19.5347 191.835 19.0645V18.4185C191.835 16.9594 191.446 15.8388 190.672 15.0565C189.893 14.2742 188.795 13.8875 187.378 13.8875C185.961 13.8875 184.838 14.2874 184.011 15.0829C183.307 15.7641 182.852 16.6694 182.651 17.8032C182.585 18.1636 182.257 18.4185 181.894 18.4185H176.743C176.266 18.4185 175.912 17.9922 175.973 17.522C176.196 15.7904 176.734 14.2567 177.582 12.9207C178.579 11.3605 179.922 10.1564 181.61 9.30817C183.298 8.45998 185.24 8.03369 187.435 8.03369C191.017 8.03369 193.812 8.97417 195.819 10.8595C197.826 12.7449 198.832 15.3641 198.832 18.7261V34.9999C198.832 35.4306 198.482 35.7821 198.054 35.7821H193.58C193.151 35.7821 192.801 35.4306 192.801 34.9999H192.797ZM182.314 27.6343C182.314 28.6846 182.677 29.5284 183.403 30.1525C184.129 30.7809 185.117 31.0929 186.368 31.0929C188.091 31.0929 189.434 30.671 190.396 29.8185C191.358 28.9703 191.839 27.8145 191.839 26.3554V25.1381C191.839 24.7513 191.555 24.4217 191.17 24.3646C190.658 24.2855 190.19 24.2283 189.762 24.1932C189.154 24.1404 188.546 24.1185 187.938 24.1185C186.115 24.1185 184.719 24.4085 183.757 24.9842C182.795 25.5599 182.314 26.4433 182.314 27.6299V27.6343Z" fill="#1F1E1E"/>
<path d="M11.2046 50.6408C11.2046 49.1905 11.4801 47.8809 12.0355 46.6987C12.5909 45.5209 13.3606 44.598 14.349 43.9256C15.3374 43.2576 16.4963 42.9236 17.8258 42.9236C18.6567 42.9236 19.4395 43.095 20.1698 43.4378C20.629 43.6531 21.0533 43.9344 21.4425 44.2772C21.6961 44.5013 22.0941 44.3343 22.0941 43.9959V38.4937C22.0941 38.2783 22.269 38.1025 22.4833 38.1025H25.807C26.0213 38.1025 26.1962 38.2783 26.1962 38.4937V57.7075C26.1962 57.9229 26.0213 58.0986 25.807 58.0986H22.7895C22.5752 58.0986 22.4002 57.9229 22.4002 57.7075V56.0946C21.8273 56.8198 21.1538 57.3823 20.3754 57.7778C19.6013 58.1778 18.7485 58.3755 17.8258 58.3755C16.4963 58.3755 15.3374 58.0327 14.349 57.3471C13.3606 56.6616 12.5909 55.7299 12.0355 54.5609C11.4801 53.3919 11.2046 52.0822 11.2046 50.632V50.6408ZM15.4729 50.6408C15.4729 51.9768 15.8009 52.9832 16.4569 53.6643C17.1129 54.3411 17.8826 54.6795 18.7704 54.6795C19.3608 54.6795 19.9074 54.5257 20.406 54.2181C20.9046 53.9105 21.3025 53.4534 21.5999 52.8381C21.8973 52.2273 22.0416 51.4846 22.0416 50.61C22.0416 49.7354 21.8886 48.9751 21.5824 48.3819C21.2763 47.7886 20.8739 47.3403 20.3754 47.0459C19.8768 46.747 19.3389 46.602 18.766 46.602C17.8782 46.602 17.1085 46.936 16.4525 47.604C15.7965 48.272 15.4686 49.2828 15.4686 50.6408H15.4729Z" fill="#1F1E1E"/>
<path d="M34.8162 58.3533C33.3205 58.3533 32.0129 58.0325 30.8934 57.3909C29.7738 56.7492 28.9035 55.8439 28.2738 54.6749C27.644 53.5059 27.3335 52.1479 27.3335 50.6098C27.3335 49.0716 27.6571 47.7795 28.3044 46.6281C28.9516 45.4767 29.835 44.5714 30.9502 43.9122C32.0698 43.2529 33.3468 42.9233 34.79 42.9233C35.9708 42.9233 37.0422 43.1475 38.0043 43.5913C38.9665 44.0352 39.7755 44.6593 40.4315 45.4591C41.0875 46.259 41.5555 47.1906 41.831 48.2586C42.0803 49.2254 42.1415 50.245 42.0147 51.3217C41.9928 51.5195 41.8179 51.6689 41.6211 51.6689H30.1893C29.975 51.6689 29.8 51.4931 29.8 51.2778V49.4671C29.8 49.2518 29.975 49.076 30.1893 49.076H37.1647C37.3921 49.076 37.5801 48.8782 37.5539 48.6497C37.4577 47.885 37.1909 47.2654 36.7405 46.7907C36.2157 46.2326 35.5247 45.9557 34.6763 45.9557C33.994 45.9557 33.4211 46.1315 32.9576 46.4831C32.494 46.8347 32.1397 47.3576 31.8905 48.0432C31.6412 48.7288 31.5144 49.5858 31.5144 50.6054C31.5144 51.6249 31.6324 52.4204 31.873 53.0972C32.1135 53.774 32.4721 54.2838 32.9532 54.6309C33.4342 54.9737 34.0246 55.1451 34.7287 55.1451C35.5247 55.1451 36.185 54.965 36.7098 54.6002C37.169 54.2838 37.5014 53.8487 37.7157 53.2906C37.7726 53.1367 37.9125 53.0269 38.0787 53.0269H41.3893C41.6473 53.0269 41.8441 53.2818 41.7654 53.5279C41.3105 54.9781 40.5234 56.1164 39.4125 56.9514C38.1749 57.8787 36.6399 58.3445 34.8118 58.3445L34.8162 58.3533Z" fill="#1F1E1E"/>
<path d="M59.114 63.6845C56.5119 63.6845 54.2072 63.0912 52.1998 61.9046C50.1881 60.718 48.6269 59.0524 47.5117 56.9166C46.3965 54.7763 45.8411 52.3197 45.8411 49.5334C45.8411 46.7471 46.414 44.4003 47.5641 42.2777C48.7099 40.155 50.2931 38.485 52.3004 37.2633C54.3078 36.0415 56.5819 35.4307 59.114 35.4307C61.5106 35.4307 63.6666 35.9405 65.5734 36.96C67.4801 37.9796 69.0414 39.4035 70.2616 41.2361C71.333 42.849 72.024 44.7124 72.3345 46.8262C72.4045 47.2921 72.0284 47.7052 71.5604 47.7052H65.2804C64.9043 47.7052 64.5719 47.4371 64.515 47.068C64.3051 45.6353 63.7716 44.4838 62.9144 43.6093C61.9348 42.6073 60.684 42.1063 59.1665 42.1063C57.9857 42.1063 56.9711 42.4095 56.1271 43.0204C55.283 43.6313 54.6314 44.4882 54.1766 45.5913C53.7217 46.6944 53.4943 48.0084 53.4943 49.5378C53.4943 51.0672 53.7217 52.4471 54.1766 53.5854C54.6314 54.7236 55.283 55.5894 56.1271 56.1827C56.9711 56.776 57.9857 57.0748 59.1665 57.0748C60.719 57.0748 61.9698 56.5738 62.9144 55.5718C63.741 54.6972 64.2701 53.5282 64.5063 52.0648C64.5675 51.6868 64.9043 51.4188 65.2847 51.4188H71.5648C72.0327 51.4188 72.4045 51.8319 72.3389 52.2933C72.0327 54.4379 71.3549 56.3189 70.314 57.9318C69.1332 59.7644 67.5938 61.1839 65.7046 62.1815C63.8109 63.1835 61.6199 63.6845 59.1184 63.6845H59.114Z" fill="#1F1E1E"/>
<path d="M109.306 63.6625H103.463C103.035 63.6625 102.685 63.3022 102.685 62.8539V36.314C102.685 35.8658 103.035 35.5054 103.463 35.5054H108.746C109.175 35.5054 109.525 35.8658 109.525 36.314V37.2281C109.525 37.9445 110.351 38.3005 110.845 37.7951C111.493 37.1359 112.192 36.5821 112.945 36.1338C114.243 35.3604 115.792 34.978 117.58 34.978C119.369 34.978 120.948 35.3911 122.317 36.213C123.375 36.8502 124.236 37.716 124.901 38.8015C125.177 39.2541 125.793 39.32 126.134 38.9157C127.044 37.8302 128.05 36.9469 129.161 36.2657C130.56 35.4043 132.275 34.978 134.304 34.978C137.006 34.978 139.211 35.8833 140.916 37.6896C142.622 39.4958 143.475 42.1019 143.475 45.5035V62.8539C143.475 63.3022 143.125 63.6625 142.696 63.6625H136.853C136.425 63.6625 136.075 63.3022 136.075 62.8539V47.925C136.075 46.0308 135.694 44.5498 134.934 43.4775C134.173 42.4095 133.066 41.8734 131.614 41.8734C130.735 41.8734 129.935 42.1019 129.209 42.559C128.483 43.016 127.901 43.7104 127.46 44.6377C127.022 45.5694 126.799 46.7164 126.799 48.0832V62.8539C126.799 63.3022 126.449 63.6625 126.021 63.6625H120.13C119.701 63.6625 119.351 63.3022 119.351 62.8539V47.925C119.351 46.0308 118.98 44.5498 118.236 43.4775C117.493 42.4095 116.378 41.8734 114.891 41.8734C114.012 41.8734 113.211 42.1019 112.485 42.559C111.759 43.016 111.178 43.7104 110.736 44.6377C110.299 45.5694 110.076 46.7164 110.076 48.0832V62.8539C110.076 63.3022 109.726 63.6625 109.297 63.6625H109.306Z" fill="#1F1E1E"/>
<path d="M172.093 49.5111C172.093 52.1919 171.595 54.5959 170.598 56.7141C169.601 58.8368 168.201 60.5244 166.395 61.7813C164.589 63.0382 162.468 63.6666 160.036 63.6666C158.484 63.6666 157.049 63.3458 155.729 62.6998C154.92 62.3043 154.163 61.7989 153.459 61.188C152.96 60.7529 152.182 61.1177 152.182 61.7813V78.222C152.182 78.6527 151.832 79.0043 151.403 79.0043H145.561C145.132 79.0043 144.782 78.6527 144.782 78.222V32.3101C144.782 31.8794 145.132 31.5278 145.561 31.5278H150.844C151.272 31.5278 151.622 31.8794 151.622 32.3101V37.6365C151.622 38.3133 152.422 38.6737 152.917 38.2122C153.651 37.5267 154.46 36.9597 155.344 36.5071C156.778 35.7776 158.339 35.4128 160.032 35.4128C162.463 35.4128 164.585 36.0324 166.391 37.2718C168.197 38.5111 169.601 40.1987 170.593 42.3389C171.591 44.4792 172.089 46.8699 172.089 49.5155L172.093 49.5111ZM164.392 49.5111C164.392 47.0677 163.784 45.2175 162.568 43.9606C161.353 42.7037 159.936 42.0752 158.313 42.0752C157.268 42.0752 156.271 42.3565 155.326 42.9146C154.382 43.4728 153.629 44.3078 153.074 45.4108C152.519 46.5139 152.239 47.8983 152.239 49.5595C152.239 51.2207 152.527 52.5567 153.1 53.6598C153.673 54.7629 154.417 55.5935 155.331 56.156C156.24 56.7141 157.237 56.9954 158.318 56.9954C159.94 56.9954 161.357 56.367 162.573 55.1101C163.789 53.8532 164.396 51.9898 164.396 49.5111H164.392Z" fill="#1F1E1E"/>
<path d="M180.805 50.6319V62.8845C180.805 63.3152 180.455 63.6667 180.027 63.6667H174.184C173.755 63.6667 173.406 63.3152 173.406 62.8845V37.2104C173.406 36.7797 173.755 36.4281 174.184 36.4281H179.467C179.895 36.4281 180.245 36.7797 180.245 37.2104V39.2495C180.245 39.9483 181.098 40.3218 181.579 39.8208C182.432 38.9375 183.464 38.1948 184.675 37.6015C186.377 36.7709 188.161 36.3007 190.028 36.1996C190.466 36.1732 190.833 36.5424 190.833 36.9818V43.0774C190.833 43.53 190.448 43.8772 190.002 43.8552C188.349 43.7673 186.88 43.8464 185.59 44.0925C184.085 44.3826 182.913 45.033 182.069 46.0526C181.225 47.0722 180.801 48.5972 180.801 50.6363L180.805 50.6319Z" fill="#1F1E1E"/>
<path d="M208.973 62.8802V62.4935C208.973 61.8255 208.182 61.4432 207.687 61.887C207.066 62.4452 206.38 62.9022 205.628 63.2494C204.311 63.8603 202.724 64.1635 200.865 64.1635C198.062 64.1635 195.801 63.39 194.078 61.8475C192.355 60.3049 191.493 58.257 191.493 55.7124C191.493 53.1678 192.538 51.0364 194.633 49.6301C196.728 48.2238 199.732 47.5162 203.651 47.5162C204.394 47.5162 205.12 47.5426 205.829 47.5909C206.257 47.6217 206.695 47.6612 207.132 47.7096C207.596 47.7623 208.007 47.4063 208.007 46.9361V46.2901C208.007 44.831 207.618 43.7103 206.843 42.9281C206.065 42.1458 204.967 41.7591 203.55 41.7591C202.133 41.7591 201.009 42.159 200.183 42.9545C199.479 43.6356 199.024 44.541 198.823 45.6748C198.757 46.0352 198.429 46.2901 198.066 46.2901H192.914C192.438 46.2901 192.084 45.8638 192.145 45.3935C192.368 43.662 192.906 42.1282 193.754 40.7922C194.751 39.2321 196.094 38.0279 197.782 37.1798C199.47 36.3316 201.412 35.9053 203.607 35.9053C207.189 35.9053 209.983 36.8457 211.991 38.7311C213.998 40.6164 215.004 43.2357 215.004 46.5977V62.8715C215.004 63.3021 214.654 63.6537 214.226 63.6537H209.752C209.323 63.6537 208.973 63.3021 208.973 62.8715V62.8802ZM198.486 55.519C198.486 56.5694 198.849 57.4132 199.575 58.0372C200.301 58.6657 201.289 58.9777 202.54 58.9777C204.263 58.9777 205.606 58.5558 206.568 57.7032C207.53 56.855 208.011 55.6992 208.011 54.2402V53.0228C208.011 52.6361 207.727 52.3065 207.342 52.2493C206.83 52.1702 206.362 52.1131 205.934 52.078C205.326 52.0252 204.718 52.0032 204.11 52.0032C202.286 52.0032 200.891 52.2933 199.929 52.869C198.967 53.4447 198.486 54.3281 198.486 55.5146V55.519Z" fill="#1F1E1E"/>
<path d="M100.306 43.9564C99.5972 42.238 98.6176 40.735 97.3668 39.443C96.1161 38.1509 94.6554 37.1489 92.9848 36.437C92.4775 36.2216 91.9527 36.0371 91.4148 35.8876C91.2398 35.8393 91.2486 35.5932 91.4279 35.5536C92.8361 35.2636 94.1131 34.7186 95.2676 33.9144C97.0738 32.6575 98.4776 30.9655 99.4704 28.8429C100.467 26.7202 100.966 24.3163 100.966 21.6267C100.966 18.9371 100.467 16.5815 99.4704 14.4369C98.4733 12.2966 97.0738 10.6046 95.2676 9.36533C93.4615 8.12601 91.3404 7.50635 88.9089 7.50635C87.2208 7.50635 85.6595 7.87111 84.2207 8.60064C83.3329 9.0533 82.5239 9.62462 81.7848 10.3146C81.295 10.7716 80.499 10.4025 80.499 9.73009V8.79401C80.499 8.36332 80.1492 8.01174 79.7206 8.01174H74.4376C74.009 8.01174 73.6592 8.36332 73.6592 8.79401V49.4806C73.6592 51.4846 74.0047 53.3392 74.7 55.0356C75.391 56.7363 76.3619 58.2393 77.6126 59.549C78.8634 60.8586 80.3241 61.8694 81.9947 62.5813C83.6653 63.2933 85.4977 63.6537 87.4919 63.6537C89.4861 63.6537 91.3186 63.2977 92.9892 62.5813C94.6598 61.865 96.1204 60.8586 97.3712 59.549C98.622 58.2393 99.6016 56.7363 100.31 55.0356C101.019 53.3348 101.373 51.4846 101.373 49.4806C101.373 47.4766 101.019 45.666 100.31 43.9476L100.306 43.9564ZM81.9422 17.5264C82.4976 16.4233 83.2498 15.5883 84.1945 15.0302C85.1391 14.4676 86.1362 14.1908 87.1814 14.1908C88.8039 14.1908 90.2209 14.8192 91.4366 16.0761C92.6524 17.333 93.2603 19.1876 93.2603 21.6355C93.2603 24.0833 92.6524 25.9863 91.4366 27.2432C90.2209 28.5001 88.8039 29.1285 87.1814 29.1285C86.1012 29.1285 85.1041 28.8472 84.1945 28.2891C83.2848 27.731 82.5413 26.896 81.9641 25.7929C81.3912 24.6898 81.1025 23.3187 81.1025 21.6882C81.1025 20.0577 81.3824 18.6382 81.9378 17.5352L81.9422 17.5264ZM82.3227 33.3167C83.0312 33.932 83.7921 34.4374 84.6012 34.8373C85.0954 35.079 85.607 35.2768 86.1362 35.4262C84.6624 35.5536 83.2804 35.8876 81.9947 36.437C81.8416 36.5029 81.6929 36.5688 81.5486 36.6391C81.3212 36.749 81.0588 36.5732 81.0588 36.3183V33.9144C81.0588 33.2552 81.8329 32.8816 82.3271 33.3167H82.3227ZM92.8098 53.6204C92.2369 54.7411 91.4847 55.5849 90.5532 56.143C89.6261 56.7056 88.6027 56.9824 87.4875 56.9824C86.3724 56.9824 85.3927 56.7012 84.4481 56.143C83.5035 55.5805 82.7513 54.7411 82.1959 53.6204C81.6404 52.4998 81.3606 51.1242 81.3606 49.4894C81.3606 47.8545 81.6404 46.5317 82.1959 45.4111C82.7513 44.2904 83.5035 43.4466 84.4481 42.8885C85.3927 42.3259 86.4073 42.0491 87.4875 42.0491C88.5678 42.0491 89.6217 42.3303 90.5532 42.8885C91.4804 43.451 92.2326 44.2904 92.8098 45.4111C93.3827 46.5317 93.6714 47.8941 93.6714 49.4894C93.6714 51.0847 93.3827 52.4954 92.8098 53.6204Z" fill="#1F1E1E"/>
<path d="M201.95 10.3231C201.382 10.3231 200.874 10.1868 200.428 9.91435C199.982 9.64188 199.628 9.27272 199.37 8.81127C199.112 8.34982 198.985 7.84003 198.985 7.2775C198.985 6.71498 199.112 6.20958 199.366 5.76132C199.619 5.31305 199.969 4.95708 200.406 4.69339C200.848 4.42971 201.355 4.29787 201.924 4.29787C202.492 4.29787 203.039 4.42971 203.485 4.69339C203.931 4.95708 204.281 5.31745 204.535 5.7745C204.788 6.23156 204.915 6.73695 204.915 7.29069C204.915 7.84443 204.788 8.3674 204.535 8.82885C204.281 9.2903 203.931 9.65506 203.485 9.92314C203.039 10.1912 202.527 10.3275 201.95 10.3275V10.3231ZM201.937 9.63749C202.392 9.63749 202.79 9.53641 203.131 9.32985C203.472 9.1233 203.739 8.84204 203.936 8.48606C204.132 8.13009 204.229 7.73456 204.229 7.29508C204.229 6.85561 204.132 6.46448 203.936 6.11729C203.739 5.77011 203.468 5.49324 203.131 5.28668C202.79 5.08013 202.388 4.97466 201.924 4.97466C201.46 4.97466 201.084 5.08013 200.748 5.28668C200.411 5.49324 200.144 5.77011 199.956 6.11729C199.764 6.46448 199.667 6.85561 199.667 7.29508C199.667 7.73456 199.764 8.13448 199.956 8.48606C200.148 8.84204 200.415 9.1233 200.756 9.32985C201.097 9.53641 201.491 9.63749 201.937 9.63749ZM201.24 8.67503C201.074 8.67503 200.94 8.54072 200.94 8.37504V6.14042C200.94 5.97474 201.074 5.84042 201.24 5.84042H201.701V8.37503C201.701 8.54072 201.567 8.67503 201.401 8.67503H201.24ZM201.827 7.54119C201.678 7.54119 201.557 7.42018 201.557 7.27091C201.557 7.12164 201.678 7.00064 201.827 7.00064H202.068C202.165 7.00064 202.243 6.97427 202.304 6.91714C202.366 6.86 202.396 6.78529 202.396 6.68421C202.396 6.59632 202.37 6.526 202.313 6.47327C202.256 6.42053 202.173 6.39416 202.068 6.39416H201.857C201.691 6.39416 201.557 6.25985 201.557 6.09416V5.84042H202.173C202.453 5.84042 202.685 5.91953 202.869 6.07774C203.052 6.23595 203.144 6.43811 203.144 6.68421C203.144 6.93032 203.052 7.14566 202.869 7.30387C202.685 7.46209 202.44 7.54119 202.134 7.54119H201.827ZM202.626 8.67503C202.524 8.67503 202.429 8.62277 202.373 8.53642L201.688 7.46208L202.189 7.35757C202.307 7.333 202.428 7.38117 202.496 7.47993L203 8.20372C203.138 8.40263 202.996 8.67503 202.754 8.67503H202.626Z" fill="#1F1E1E"/>
</g>
</svg>
