<svg width="242" height="88" viewBox="0 0 242 88" fill="none" xmlns="http://www.w3.org/2000/svg">
<g clip-path="url(#clip0_399_1100)">
<path d="M30.7361 24.0707C30.7361 27.0569 30.1749 29.7347 29.0526 32.0943C27.9303 34.4588 26.3551 36.3386 24.3221 37.7387C22.2891 39.1388 19.9017 39.8389 17.1648 39.8389C15.4173 39.8389 13.8027 39.4766 12.3161 38.7619C11.5826 38.4094 10.8886 37.9737 10.229 37.4597C9.45612 36.8575 8.32395 37.445 8.32395 38.4192V49.0227C8.32395 49.6786 7.7874 50.2122 7.12778 50.2122H0.876205C0.3938 50.2122 0 49.8206 0 49.3409V10.1237C0 9.46769 0.536553 8.93409 1.19617 8.93409H6.4977C7.15732 8.93409 7.69387 9.46769 7.69387 10.1237C7.69387 11.1126 8.8605 11.7 9.62349 11.0636C10.3225 10.481 11.0756 9.98661 11.8829 9.58029C13.4975 8.76765 15.2548 8.36133 17.1598 8.36133C19.8967 8.36133 22.2842 9.05158 24.3172 10.4321C26.3501 11.8126 27.9303 13.6924 29.0477 16.0765C30.17 18.4606 30.7312 21.1237 30.7312 24.0707H30.7361ZM22.0676 24.0707C22.0676 21.3489 21.3833 19.2879 20.0149 17.8878C18.6464 16.4877 17.0515 15.7877 15.2253 15.7877C14.0488 15.7877 12.9265 16.101 11.8632 16.7227C10.8 17.3444 9.9533 18.2745 9.32814 19.5033C8.70298 20.732 8.38794 22.2741 8.38794 24.1246C8.38794 25.975 8.71283 27.4632 9.35767 28.692C10.0025 29.9207 10.8393 30.846 11.8681 31.4726C12.892 32.0943 14.0144 32.4076 15.2302 32.4076C17.0565 32.4076 18.6514 31.7076 20.0198 30.3075C21.3883 28.9074 22.0725 26.8317 22.0725 24.0707H22.0676Z" fill="white"/>
<path d="M40.5415 25.3485V38.997C40.5415 39.4767 40.1477 39.8683 39.6653 39.8683H33.0889C32.6064 39.8683 32.2126 39.4767 32.2126 38.997V10.3979C32.2126 9.91818 32.6064 9.52655 33.0889 9.52655H39.0352C39.5176 9.52655 39.9114 9.91818 39.9114 10.3979V12.6694C39.9114 13.4478 40.8713 13.8639 41.4128 13.3058C42.3727 12.3218 43.5344 11.4945 44.8979 10.8336C46.8128 9.90839 48.8212 9.38458 50.9231 9.27199C51.4153 9.24262 51.8288 9.65383 51.8288 10.1434V16.9333C51.8288 17.4375 51.3956 17.8243 50.8935 17.7998C49.0328 17.7019 47.3789 17.79 45.9267 18.0642C44.2334 18.3873 42.9142 19.1118 41.9641 20.2475C41.0141 21.3833 40.5366 23.082 40.5366 25.3534L40.5415 25.3485Z" fill="white"/>
<path d="M65.804 39.8388C63.5593 39.8388 61.4968 39.4423 59.6164 38.6492C57.736 37.8562 56.0919 36.7302 54.6841 35.2763C53.2762 33.8224 52.1834 32.1481 51.4057 30.2585C50.6279 28.3689 50.2341 26.3079 50.2341 24.0756C50.2341 21.8433 50.623 19.8313 51.4057 17.9221C52.1834 16.0128 53.2762 14.3386 54.6841 12.9042C56.0919 11.4699 57.736 10.3537 59.6164 9.56068C61.4968 8.76762 63.5593 8.37109 65.804 8.37109C68.0487 8.37109 70.1112 8.76762 71.9916 9.56068C73.872 10.3537 75.5161 11.4699 76.9239 12.9042C78.3318 14.3435 79.4344 16.0128 80.2318 17.9221C81.0293 19.8313 81.428 21.8824 81.428 24.0756C81.428 26.2687 81.0293 28.3689 80.2318 30.2585C79.4344 32.1481 78.3318 33.8224 76.9239 35.2763C75.5161 36.7302 73.872 37.8562 71.9916 38.6492C70.1112 39.4423 68.0487 39.8388 65.804 39.8388ZM65.804 32.4076C67.0592 32.4076 68.2062 32.0943 69.2547 31.4726C70.2982 30.8508 71.1449 29.9109 71.7898 28.6675C72.4346 27.4192 72.7595 25.8869 72.7595 24.0756C72.7595 22.2643 72.4346 20.7859 71.7898 19.5375C71.1449 18.2892 70.2982 17.3542 69.2547 16.7325C68.2111 16.1107 67.0592 15.7974 65.804 15.7974C64.5488 15.7974 63.4461 16.1107 62.3829 16.7325C61.3196 17.3542 60.4729 18.2941 59.8478 19.5375C59.2226 20.7859 58.9076 22.2986 58.9076 24.0756C58.9076 25.8526 59.2226 27.4192 59.8478 28.6675C60.4729 29.9158 61.3196 30.8508 62.3829 31.4726C63.4461 32.0943 64.5881 32.4076 65.804 32.4076Z" fill="white"/>
<path d="M130.697 39.8681C128.453 39.8681 126.39 39.4716 124.51 38.6785C122.629 37.8855 120.985 36.7595 119.577 35.3056C118.17 33.8517 117.077 32.1774 116.299 30.2878C115.521 28.3982 115.127 26.3372 115.127 24.1049C115.127 21.8726 115.516 19.8606 116.299 17.9513C117.077 16.0421 118.17 14.3679 119.577 12.9335C120.985 11.4992 122.629 10.383 124.51 9.58998C126.39 8.79692 128.453 8.40039 130.697 8.40039C132.942 8.40039 135.004 8.79692 136.885 9.58998C138.765 10.383 140.409 11.4992 141.817 12.9335C143.225 14.3728 144.328 16.0421 145.125 17.9513C145.923 19.8606 146.321 21.9117 146.321 24.1049C146.321 26.298 145.923 28.3982 145.125 30.2878C144.328 32.1774 143.225 33.8517 141.817 35.3056C140.409 36.7595 138.765 37.8855 136.885 38.6785C135.004 39.4716 132.942 39.8681 130.697 39.8681ZM130.697 32.4369C131.953 32.4369 133.099 32.1236 134.148 31.5019C135.192 30.8801 136.038 29.9402 136.683 28.6968C137.328 27.4485 137.653 25.9162 137.653 24.1049C137.653 22.2936 137.328 20.8152 136.683 19.5668C136.038 18.3185 135.192 17.3835 134.148 16.7618C133.104 16.14 131.953 15.8267 130.697 15.8267C129.442 15.8267 128.339 16.14 127.276 16.7618C126.213 17.3835 125.366 18.3234 124.741 19.5668C124.116 20.8152 123.801 22.3279 123.801 24.1049C123.801 25.8819 124.116 27.4485 124.741 28.6968C125.366 29.9451 126.213 30.8801 127.276 31.5019C128.339 32.1236 129.481 32.4369 130.697 32.4369Z" fill="white"/>
<path d="M175.699 29.4311C175.699 32.6425 174.522 35.1881 172.164 37.0582C169.807 38.9282 166.425 39.8633 162.014 39.8633C157.604 39.8633 154.232 38.8793 151.78 36.9162C149.58 35.149 148.256 32.8041 147.818 29.8815C147.739 29.3479 148.143 28.8633 148.684 28.8633H154.896C155.32 28.8633 155.684 29.1668 155.753 29.5829C155.94 30.7578 156.526 31.7075 157.515 32.4369C158.691 33.3083 160.232 33.7391 162.132 33.7391C163.575 33.7391 164.79 33.5139 165.78 33.0586C166.769 32.6033 167.262 31.869 167.262 30.8459C167.262 29.9745 166.947 29.3136 166.321 28.8633C165.696 28.408 164.697 28.0702 163.328 27.845L157.741 26.8219C155.044 26.2932 152.903 25.2896 151.327 23.8161C149.747 22.3426 148.96 20.4138 148.96 18.0297C148.96 16.1401 149.472 14.4658 150.5 13.0119C151.529 11.558 152.981 10.4222 154.862 9.60958C156.742 8.79694 158.957 8.39062 161.507 8.39062C164.057 8.39062 166.42 8.81653 168.379 9.66833C170.338 10.5201 171.913 11.7489 173.11 13.3546C174.124 14.7106 174.759 16.2918 175.024 18.0982C175.103 18.6318 174.695 19.1116 174.158 19.1116H167.906C167.503 19.1116 167.134 18.8374 167.06 18.4409C166.838 17.3199 166.302 16.4191 165.44 15.7386C164.416 14.926 163.122 14.5197 161.561 14.5197C160.193 14.5197 159.09 14.7547 158.253 15.2295C157.417 15.7044 156.998 16.3897 156.998 17.3003C156.998 18.1325 157.303 18.7444 157.909 19.141C158.514 19.5375 159.45 19.8508 160.705 20.076L166.691 21.2117C169.693 21.7404 171.948 22.695 173.449 24.0755C174.951 25.456 175.704 27.2429 175.704 29.436L175.699 29.4311Z" fill="white"/>
<path d="M196.369 32.5202V37.8709C196.369 38.194 196.192 38.4976 195.906 38.6493C195.069 39.0801 194.228 39.3836 193.376 39.5599C192.367 39.7655 191.254 39.8732 190.038 39.8732C187.907 39.8732 186.066 39.4668 184.506 38.6542C182.945 37.8416 181.739 36.652 180.883 35.0806C180.026 33.514 179.598 31.595 179.598 29.3235V17.036C179.598 16.5563 179.204 16.1647 178.722 16.1647H174.483C174.001 16.1647 173.607 15.773 173.607 15.2933V9.83C173.607 9.35024 174.001 8.95861 174.483 8.95861H178.722C179.204 8.95861 179.598 8.56698 179.598 8.08723V0.871384C179.598 0.391633 179.992 0 180.474 0H187.105C187.587 0 187.981 0.391633 187.981 0.871384V8.09212C187.981 8.57187 188.375 8.96351 188.857 8.96351H195.719C196.201 8.96351 196.595 9.35514 196.595 9.83489V15.2982C196.595 15.7779 196.201 16.1696 195.719 16.1696H188.857C188.375 16.1696 187.981 16.5612 187.981 17.0409V27.3996C187.981 29.0641 188.35 30.2733 189.093 31.0271C189.837 31.7859 190.91 32.1629 192.313 32.1629C193.071 32.1629 193.804 32.0797 194.508 31.9083C194.749 31.8496 194.981 31.781 195.202 31.7076C195.773 31.5167 196.359 31.9279 196.359 32.5251L196.369 32.5202Z" fill="white"/>
<path d="M217.008 38.987V38.5611C217.008 37.817 216.118 37.3911 215.561 37.8855C214.862 38.5073 214.089 39.0164 213.243 39.4031C211.761 40.0836 209.974 40.4263 207.882 40.4263C204.727 40.4263 202.182 39.5647 200.242 37.8464C198.303 36.1281 197.333 33.8468 197.333 31.0124C197.333 28.1779 198.51 25.8037 200.868 24.2371C203.225 22.6706 206.607 21.8824 211.018 21.8824C211.855 21.8824 212.672 21.9118 213.469 21.9656C213.952 21.9999 214.444 22.044 214.941 22.0978C215.463 22.1566 215.926 21.76 215.926 21.2362V20.5166C215.926 18.8913 215.487 17.643 214.616 16.7716C213.74 15.9002 212.504 15.4694 210.91 15.4694C209.315 15.4694 208.05 15.9149 207.119 16.801C206.327 17.5598 205.815 18.5682 205.588 19.8312C205.514 20.2327 205.145 20.5166 204.737 20.5166H198.938C198.401 20.5166 198.003 20.0417 198.072 19.5179C198.323 17.5891 198.928 15.8806 199.883 14.3924C201.005 12.6546 202.517 11.3132 204.417 10.3684C206.317 9.42359 208.502 8.94873 210.973 8.94873C215.005 8.94873 218.151 9.99635 220.41 12.0965C222.669 14.1966 223.802 17.1143 223.802 20.8593V38.987C223.802 39.4668 223.408 39.8584 222.925 39.8584H217.89C217.407 39.8584 217.013 39.4668 217.013 38.987H217.008ZM205.209 30.7823C205.209 31.9523 205.618 32.8922 206.435 33.5874C207.252 34.2874 208.365 34.635 209.772 34.635C211.712 34.635 213.223 34.165 214.306 33.2153C215.389 32.2705 215.93 30.983 215.93 29.3577V28.0017C215.93 27.5709 215.611 27.2037 215.177 27.1401C214.601 27.052 214.075 26.9883 213.592 26.9492C212.908 26.8904 212.224 26.866 211.54 26.866C209.487 26.866 207.917 27.1891 206.834 27.8304C205.751 28.4717 205.209 29.4556 205.209 30.7774V30.7823Z" fill="white"/>
<path d="M12.6119 56.41C12.6119 54.7945 12.9221 53.3357 13.5472 52.0188C14.1724 50.7068 15.0387 49.6788 16.1512 48.9298C17.2637 48.1857 18.5682 47.8136 20.0646 47.8136C20.9999 47.8136 21.881 48.0046 22.7031 48.3864C23.2199 48.6263 23.6974 48.9396 24.1355 49.3214C24.421 49.5711 24.869 49.3851 24.869 49.0081V42.8791C24.869 42.6392 25.0659 42.4434 25.3071 42.4434H29.0482C29.2894 42.4434 29.4863 42.6392 29.4863 42.8791V64.2818C29.4863 64.5217 29.2894 64.7175 29.0482 64.7175H25.6516C25.4104 64.7175 25.2135 64.5217 25.2135 64.2818V62.4852C24.5687 63.2929 23.8106 63.9196 22.9344 64.3601C22.0631 64.8056 21.1033 65.0259 20.0646 65.0259C18.5682 65.0259 17.2637 64.6441 16.1512 63.8804C15.0387 63.1167 14.1724 62.0789 13.5472 60.7767C12.9221 59.4745 12.6119 58.0157 12.6119 56.4002V56.41ZM17.4163 56.41C17.4163 57.8982 17.7855 59.0192 18.5239 59.778C19.2622 60.5319 20.1286 60.9089 21.1279 60.9089C21.7924 60.9089 22.4077 60.7375 22.9689 60.3949C23.53 60.0522 23.978 59.5431 24.3127 58.8577C24.6475 58.1772 24.8099 57.3499 24.8099 56.3757C24.8099 55.4015 24.6376 54.5546 24.293 53.8937C23.9485 53.2329 23.4956 52.7335 22.9344 52.4055C22.3733 52.0726 21.7678 51.9111 21.1229 51.9111C20.1237 51.9111 19.2573 52.2831 18.5189 53.0273C17.7806 53.7714 17.4114 54.8973 17.4114 56.41H17.4163Z" fill="white"/>
<path d="M39.1886 65.0013C37.5051 65.0013 36.0333 64.6439 34.7732 63.9292C33.513 63.2145 32.5334 62.206 31.8246 60.9038C31.1157 59.6016 30.7662 58.089 30.7662 56.3756C30.7662 54.6622 31.1305 53.2229 31.859 51.9403C32.5876 50.6577 33.5819 49.6493 34.8371 48.9149C36.0973 48.1806 37.5347 47.8135 39.1591 47.8135C40.4882 47.8135 41.6942 48.0631 42.7771 48.5576C43.8601 49.052 44.7707 49.7472 45.5091 50.6381C46.2475 51.5291 46.7742 52.5669 47.0843 53.7565C47.3649 54.8335 47.4338 55.9692 47.2911 57.1686C47.2665 57.3889 47.0696 57.5554 46.848 57.5554H33.9806C33.7394 57.5554 33.5425 57.3595 33.5425 57.1197V55.1028C33.5425 54.8629 33.7394 54.6671 33.9806 54.6671H41.832C42.088 54.6671 42.2997 54.4468 42.2701 54.1922C42.1618 53.3404 41.8616 52.6501 41.3545 52.1214C40.7638 51.4997 39.9861 51.1913 39.0311 51.1913C38.2632 51.1913 37.6184 51.3871 37.0966 51.7788C36.5748 52.1704 36.1761 52.753 35.8955 53.5166C35.6149 54.2803 35.4721 55.2349 35.4721 56.3707C35.4721 57.5064 35.6051 58.3925 35.8758 59.1464C36.1465 59.9003 36.5502 60.4681 37.0916 60.8549C37.6331 61.2367 38.2977 61.4276 39.0902 61.4276C39.9861 61.4276 40.7294 61.2269 41.3201 60.8206C41.8369 60.4681 42.211 59.9835 42.4523 59.3618C42.5162 59.1904 42.6738 59.068 42.8608 59.068H46.5872C46.8776 59.068 47.0991 59.352 47.0105 59.6261C46.4985 61.2416 45.6125 62.5095 44.3622 63.4396C42.9691 64.4726 41.2413 64.9915 39.1837 64.9915L39.1886 65.0013Z" fill="white"/>
<path d="M66.5378 70.9394C63.6089 70.9394 61.0148 70.2785 58.7553 68.9568C56.491 67.635 54.7337 65.7797 53.4784 63.4005C52.2232 61.0164 51.598 58.2799 51.598 55.1762C51.598 52.0725 52.2429 49.4583 53.5375 47.0939C54.8272 44.7294 56.6091 42.8691 58.8686 41.5082C61.128 40.1473 63.6877 39.4668 66.5378 39.4668C69.2353 39.4668 71.6621 40.0347 73.8083 41.1704C75.9546 42.3061 77.7119 43.8923 79.0853 45.9336C80.2913 47.7303 81.069 49.8059 81.4185 52.1606C81.4973 52.6795 81.074 53.1397 80.5472 53.1397H73.4785C73.0552 53.1397 72.6811 52.8411 72.6171 52.4299C72.3808 50.834 71.7803 49.5514 70.8155 48.5772C69.7128 47.461 68.305 46.9029 66.5969 46.9029C65.2678 46.9029 64.1258 47.2407 63.1757 47.9212C62.2257 48.6016 61.4922 49.5562 60.9803 50.785C60.4684 52.0137 60.2124 53.4775 60.2124 55.1811C60.2124 56.8847 60.4684 58.4218 60.9803 59.6898C61.4922 60.9577 62.2257 61.9221 63.1757 62.5829C64.1258 63.2438 65.2678 63.5767 66.5969 63.5767C68.3444 63.5767 69.7522 63.0186 70.8155 61.9025C71.7458 60.9283 72.3414 59.6261 72.6073 57.9959C72.6762 57.5749 73.0552 57.2763 73.4835 57.2763H80.5522C81.0789 57.2763 81.4973 57.7365 81.4235 58.2505C81.0789 60.6395 80.3159 62.7347 79.1443 64.5313C77.8153 66.5727 76.0825 68.1539 73.956 69.2652C71.8246 70.3813 69.3584 70.9394 66.5427 70.9394H66.5378Z" fill="white"/>
<path d="M123.032 70.9148H116.456C115.974 70.9148 115.58 70.5134 115.58 70.014V40.4506C115.58 39.9513 115.974 39.5499 116.456 39.5499H122.402C122.885 39.5499 123.279 39.9513 123.279 40.4506V41.4689C123.279 42.2668 124.209 42.6633 124.765 42.1004C125.494 41.3661 126.281 40.7492 127.128 40.2499C128.59 39.3883 130.333 38.9624 132.346 38.9624C134.359 38.9624 136.136 39.4226 137.677 40.338C138.868 41.0479 139.838 42.0122 140.586 43.2214C140.896 43.7256 141.59 43.7991 141.974 43.3487C142.998 42.1395 144.13 41.1555 145.381 40.3968C146.956 39.4373 148.885 38.9624 151.17 38.9624C154.212 38.9624 156.693 39.9709 158.612 41.9829C160.532 43.9949 161.492 46.8979 161.492 50.6869V70.014C161.492 70.5134 161.098 70.9148 160.616 70.9148H154.039C153.557 70.9148 153.163 70.5134 153.163 70.014V53.3843C153.163 51.2744 152.735 49.6246 151.878 48.4301C151.022 47.2406 149.776 46.6433 148.142 46.6433C147.153 46.6433 146.252 46.8979 145.435 47.407C144.618 47.9161 143.963 48.6896 143.466 49.7225C142.974 50.7604 142.723 52.0381 142.723 53.5605V70.014C142.723 70.5134 142.329 70.9148 141.846 70.9148H135.216C134.733 70.9148 134.339 70.5134 134.339 70.014V53.3843C134.339 51.2744 133.921 49.6246 133.084 48.4301C132.247 47.2406 130.992 46.6433 129.319 46.6433C128.329 46.6433 127.428 46.8979 126.611 47.407C125.794 47.9161 125.139 48.6896 124.642 49.7225C124.15 50.7604 123.899 52.0381 123.899 53.5605V70.014C123.899 70.5134 123.505 70.9148 123.023 70.9148H123.032Z" fill="white"/>
<path d="M193.705 55.1517C193.705 58.1379 193.144 60.8157 192.022 63.1753C190.9 65.5397 189.324 67.4196 187.291 68.8197C185.258 70.2198 182.871 70.9198 180.134 70.9198C178.387 70.9198 176.772 70.5624 175.285 69.8428C174.375 69.4022 173.523 68.8393 172.731 68.1588C172.169 67.6741 171.293 68.0805 171.293 68.8197V87.1334C171.293 87.6132 170.899 88.0048 170.417 88.0048H163.841C163.358 88.0048 162.964 87.6132 162.964 87.1334V35.991C162.964 35.5113 163.358 35.1196 163.841 35.1196H169.787C170.269 35.1196 170.663 35.5113 170.663 35.991V41.9243C170.663 42.6782 171.564 43.0796 172.12 42.5656C172.947 41.8019 173.858 41.1704 174.852 40.6661C176.467 39.8535 178.224 39.4472 180.129 39.4472C182.866 39.4472 185.253 40.1374 187.286 41.5179C189.319 42.8984 190.9 44.7783 192.017 47.1624C193.139 49.5464 193.7 52.2095 193.7 55.1566L193.705 55.1517ZM185.037 55.1517C185.037 52.4298 184.353 50.3689 182.984 48.9688C181.616 47.5687 180.021 46.8686 178.195 46.8686C177.018 46.8686 175.896 47.1819 174.833 47.8037C173.769 48.4254 172.923 49.3555 172.297 50.5843C171.672 51.813 171.357 53.3551 171.357 55.2055C171.357 57.056 171.682 58.5442 172.327 59.7729C172.972 61.0017 173.809 61.9269 174.837 62.5535C175.861 63.1753 176.984 63.4886 178.2 63.4886C180.026 63.4886 181.621 62.7885 182.989 61.3884C184.358 59.9883 185.042 57.9127 185.042 55.1517H185.037Z" fill="white"/>
<path d="M203.511 56.4003V70.0487C203.511 70.5285 203.117 70.9201 202.635 70.9201H196.058C195.576 70.9201 195.182 70.5285 195.182 70.0487V41.4497C195.182 40.9699 195.576 40.5783 196.058 40.5783H202.005C202.487 40.5783 202.881 40.9699 202.881 41.4497V43.7212C202.881 44.4995 203.841 44.9156 204.382 44.3576C205.342 43.3736 206.504 42.5463 207.867 41.8854C209.782 40.9601 211.791 40.4363 213.893 40.3237C214.385 40.2944 214.798 40.7056 214.798 41.1951V47.9851C214.798 48.4893 214.365 48.876 213.863 48.8516C212.002 48.7537 210.348 48.8418 208.896 49.1159C207.203 49.439 205.884 50.1635 204.934 51.2993C203.984 52.435 203.506 54.1337 203.506 56.4052L203.511 56.4003Z" fill="white"/>
<path d="M235.216 70.0437V69.6129C235.216 68.8688 234.325 68.4429 233.769 68.9373C233.07 69.559 232.297 70.0682 231.451 70.4549C229.969 71.1354 228.182 71.4731 226.09 71.4731C222.935 71.4731 220.39 70.6115 218.45 68.8933C216.511 67.175 215.541 64.8937 215.541 62.0593C215.541 59.2248 216.717 56.8505 219.075 55.284C221.433 53.7175 224.815 52.9293 229.226 52.9293C230.062 52.9293 230.88 52.9587 231.677 53.0125C232.159 53.0468 232.652 53.0908 233.144 53.1447C233.666 53.2034 234.128 52.8069 234.128 52.2831V51.5635C234.128 49.9382 233.69 48.6899 232.819 47.8185C231.943 46.9471 230.707 46.5163 229.112 46.5163C227.517 46.5163 226.252 46.9618 225.322 47.8479C224.53 48.6066 224.018 49.6151 223.791 50.8781C223.717 51.2795 223.348 51.5635 222.94 51.5635H217.141C216.604 51.5635 216.206 51.0886 216.274 50.5648C216.526 48.636 217.131 46.9275 218.086 45.4393C219.208 43.7014 220.719 42.3601 222.62 41.4153C224.52 40.4705 226.705 39.9956 229.176 39.9956C233.208 39.9956 236.353 41.0432 238.613 43.1434C240.872 45.2435 242.004 48.1612 242.004 51.9062V70.0339C242.004 70.5136 241.611 70.9053 241.128 70.9053H236.092C235.61 70.9053 235.216 70.5136 235.216 70.0339V70.0437ZM223.412 61.8439C223.412 63.0139 223.821 63.9538 224.638 64.6489C225.455 65.349 226.567 65.6965 227.975 65.6965C229.915 65.6965 231.426 65.2266 232.509 64.2769C233.592 63.3321 234.133 62.0446 234.133 60.4193V59.0633C234.133 58.6325 233.813 58.2653 233.38 58.2017C232.804 58.1135 232.278 58.0499 231.795 58.0107C231.111 57.952 230.427 57.9275 229.742 57.9275C227.69 57.9275 226.119 58.2506 225.037 58.8919C223.954 59.5332 223.412 60.5172 223.412 61.839V61.8439Z" fill="white"/>
<path d="M112.902 48.9639C112.104 47.0498 111.002 45.3756 109.594 43.9363C108.186 42.4971 106.542 41.3809 104.662 40.5879C104.091 40.348 103.5 40.1424 102.894 39.9759C102.698 39.9221 102.707 39.6479 102.909 39.6039C104.494 39.2808 105.932 38.6737 107.231 37.7779C109.264 36.3778 110.844 34.4931 111.962 32.1286C113.084 29.7641 113.645 27.0863 113.645 24.0903C113.645 21.0943 113.084 18.4704 111.962 16.0814C110.839 13.6973 109.264 11.8126 107.231 10.4321C105.198 9.05158 102.811 8.36133 100.074 8.36133C98.1737 8.36133 96.4164 8.76765 94.7969 9.58029C93.7976 10.0845 92.887 10.7209 92.0551 11.4895C91.5037 11.9986 90.6079 11.5874 90.6079 10.8384V9.79569C90.6079 9.31593 90.214 8.9243 89.7316 8.9243H83.7853C83.3029 8.9243 82.9091 9.31593 82.9091 9.79569V55.1174C82.9091 57.3498 83.2979 59.4156 84.0806 61.3053C84.8584 63.1998 85.9512 64.874 87.359 66.3328C88.7668 67.7917 90.411 68.9176 92.2913 69.7107C94.1717 70.5037 96.2343 70.9052 98.4789 70.9052C100.724 70.9052 102.786 70.5086 104.667 69.7107C106.547 68.9127 108.191 67.7917 109.599 66.3328C111.007 64.874 112.109 63.1998 112.907 61.3053C113.704 59.4107 114.103 57.3498 114.103 55.1174C114.103 52.8851 113.704 50.8682 112.907 48.9541L112.902 48.9639ZM92.2323 19.5229C92.8574 18.2941 93.7041 17.364 94.7674 16.7423C95.8306 16.1157 96.953 15.8073 98.1294 15.8073C99.9557 15.8073 101.551 16.5073 102.919 17.9074C104.287 19.3075 104.972 21.3733 104.972 24.1001C104.972 26.8268 104.287 28.9466 102.919 30.3466C101.551 31.7467 99.9557 32.4468 98.1294 32.4468C96.9136 32.4468 95.7912 32.1335 94.7674 31.5118C93.7435 30.89 92.9067 29.9599 92.2569 28.7312C91.612 27.5024 91.2872 25.975 91.2872 24.1588C91.2872 22.3426 91.6022 20.7614 92.2274 19.5327L92.2323 19.5229ZM92.6605 37.1121C93.458 37.7975 94.3145 38.3604 95.2252 38.8059C95.7814 39.0752 96.3573 39.2955 96.953 39.4619C95.2941 39.6039 93.7386 39.9759 92.2913 40.5879C92.1191 40.6613 91.9517 40.7347 91.7893 40.813C91.5333 40.9354 91.2379 40.7396 91.2379 40.4557V37.7779C91.2379 37.0436 92.1092 36.6275 92.6655 37.1121H92.6605ZM104.465 59.7289C103.82 60.9773 102.973 61.9172 101.925 62.5389C100.881 63.1655 99.7292 63.4739 98.474 63.4739C97.2188 63.4739 96.1161 63.1606 95.0529 62.5389C93.9896 61.9123 93.1429 60.9773 92.5178 59.7289C91.8926 58.4806 91.5776 56.9483 91.5776 55.1272C91.5776 53.3061 91.8926 51.8326 92.5178 50.5843C93.1429 49.336 93.9896 48.396 95.0529 47.7743C96.1161 47.1477 97.2582 46.8393 98.474 46.8393C99.6899 46.8393 100.876 47.1526 101.925 47.7743C102.968 48.4009 103.815 49.336 104.465 50.5843C105.11 51.8326 105.434 53.3502 105.434 55.1272C105.434 56.9043 105.11 58.4757 104.465 59.7289Z" fill="white"/>
<path d="M227.311 11.4992C226.671 11.4992 226.1 11.3475 225.598 11.044C225.096 10.7404 224.697 10.3292 224.407 9.81521C224.116 9.30119 223.974 8.73332 223.974 8.10671C223.974 7.48009 224.116 6.91712 224.402 6.41779C224.687 5.91845 225.081 5.52193 225.573 5.2282C226.071 4.93448 226.642 4.78761 227.282 4.78761C227.921 4.78761 228.537 4.93448 229.039 5.2282C229.541 5.52193 229.935 5.92335 230.22 6.43247C230.506 6.9416 230.649 7.50457 230.649 8.12139C230.649 8.73821 230.506 9.32077 230.22 9.83479C229.935 10.3488 229.541 10.7551 229.039 11.0537C228.537 11.3524 227.961 11.5041 227.311 11.5041V11.4992ZM227.296 10.7355C227.808 10.7355 228.256 10.6229 228.64 10.3929C229.024 10.1628 229.324 9.84947 229.546 9.45294C229.767 9.05642 229.876 8.61583 229.876 8.12629C229.876 7.63675 229.767 7.20105 229.546 6.81432C229.324 6.42758 229.019 6.11917 228.64 5.88908C228.256 5.659 227.803 5.54151 227.282 5.54151C226.76 5.54151 226.336 5.659 225.957 5.88908C225.578 6.11917 225.278 6.42758 225.066 6.81432C224.85 7.20105 224.742 7.63675 224.742 8.12629C224.742 8.61583 224.85 9.06131 225.066 9.45294C225.283 9.84947 225.583 10.1628 225.967 10.3929C226.351 10.6229 226.794 10.7355 227.296 10.7355ZM226.474 9.66345C226.308 9.66345 226.174 9.52913 226.174 9.36345V6.8059C226.174 6.64022 226.308 6.5059 226.474 6.5059H227.031V9.36345C227.031 9.52913 226.896 9.66345 226.731 9.66345H226.474ZM227.168 8.40043C227.002 8.40043 226.868 8.26505 226.868 8.09936C226.868 7.93368 227.002 7.79829 227.168 7.79829H227.444C227.552 7.79829 227.641 7.76892 227.71 7.70528C227.779 7.64164 227.813 7.55842 227.813 7.44582C227.813 7.34792 227.784 7.26959 227.72 7.21084C227.656 7.1521 227.562 7.12273 227.444 7.12273H227.168C227.002 7.12273 226.868 6.98841 226.868 6.82273V6.5059H227.562C227.877 6.5059 228.138 6.59402 228.345 6.77026C228.552 6.94649 228.655 7.17168 228.655 7.44582C228.655 7.71997 228.552 7.95984 228.345 8.13608C228.138 8.31231 227.862 8.40043 227.518 8.40043H227.168ZM228.051 9.66345C227.949 9.66345 227.854 9.61169 227.798 9.52603L227.016 8.31231L227.606 8.19057C227.723 8.1664 227.843 8.21406 227.912 8.31186L228.53 9.19093C228.669 9.38971 228.527 9.66345 228.284 9.66345H228.051Z" fill="white"/>
</g>
</svg>
